<mxfile host="app.diagrams.net" modified="2023-02-21T12:23:41.178Z" agent="5.0 (Windows NT 10.0; Win64; x64) AppleWebKit/537.36 (KHTML, like Gecko) Chrome/110.0.0.0 Safari/537.36" etag="uu8JyPnAEHVjLLs9T145" version="20.8.21" type="github">
  <diagram name="페이지-1" id="JH0cpWZZp3dK7fMIzZ35">
    <mxGraphModel dx="1033" dy="407" grid="1" gridSize="10" guides="1" tooltips="1" connect="1" arrows="1" fold="1" page="1" pageScale="1" pageWidth="827" pageHeight="1169" math="0" shadow="0">
      <root>
        <mxCell id="0" />
        <mxCell id="1" parent="0" />
        <mxCell id="PzdWSUnrl2-MDyvF0X8B-1" value="" style="rounded=0;whiteSpace=wrap;html=1;" vertex="1" parent="1">
          <mxGeometry x="10" y="90" width="630" height="290" as="geometry" />
        </mxCell>
        <mxCell id="PzdWSUnrl2-MDyvF0X8B-2" value="" style="rounded=1;whiteSpace=wrap;html=1;" vertex="1" parent="1">
          <mxGeometry x="20" y="100" width="130" height="140" as="geometry" />
        </mxCell>
        <mxCell id="PzdWSUnrl2-MDyvF0X8B-3" value="Actor" style="shape=umlActor;verticalLabelPosition=bottom;verticalAlign=top;html=1;outlineConnect=0;" vertex="1" parent="1">
          <mxGeometry x="70" y="120" width="30" height="60" as="geometry" />
        </mxCell>
        <mxCell id="PzdWSUnrl2-MDyvF0X8B-4" value="" style="rounded=1;whiteSpace=wrap;html=1;" vertex="1" parent="1">
          <mxGeometry x="160" y="100" width="230" height="140" as="geometry" />
        </mxCell>
        <mxCell id="PzdWSUnrl2-MDyvF0X8B-5" value="" style="rounded=1;whiteSpace=wrap;html=1;" vertex="1" parent="1">
          <mxGeometry x="400" y="100" width="230" height="140" as="geometry" />
        </mxCell>
        <mxCell id="PzdWSUnrl2-MDyvF0X8B-6" value="유스케이스명" style="ellipse;whiteSpace=wrap;html=1;" vertex="1" parent="1">
          <mxGeometry x="190" y="110" width="170" height="80" as="geometry" />
        </mxCell>
        <mxCell id="PzdWSUnrl2-MDyvF0X8B-7" value="" style="rounded=1;whiteSpace=wrap;html=1;" vertex="1" parent="1">
          <mxGeometry x="20" y="250" width="150" height="120" as="geometry" />
        </mxCell>
        <mxCell id="PzdWSUnrl2-MDyvF0X8B-12" value="" style="rounded=1;whiteSpace=wrap;html=1;" vertex="1" parent="1">
          <mxGeometry x="180" y="250" width="150" height="120" as="geometry" />
        </mxCell>
        <mxCell id="PzdWSUnrl2-MDyvF0X8B-13" value="" style="rounded=1;whiteSpace=wrap;html=1;" vertex="1" parent="1">
          <mxGeometry x="340" y="250" width="140" height="120" as="geometry" />
        </mxCell>
        <mxCell id="PzdWSUnrl2-MDyvF0X8B-14" value="" style="rounded=1;whiteSpace=wrap;html=1;" vertex="1" parent="1">
          <mxGeometry x="490" y="250" width="140" height="120" as="geometry" />
        </mxCell>
        <mxCell id="PzdWSUnrl2-MDyvF0X8B-15" value="&amp;lt;&amp;lt;subsystem&amp;gt;&amp;gt;&lt;br&gt;시스템명" style="rounded=0;whiteSpace=wrap;html=1;" vertex="1" parent="1">
          <mxGeometry x="455" y="120" width="120" height="70" as="geometry" />
        </mxCell>
        <mxCell id="PzdWSUnrl2-MDyvF0X8B-16" value="" style="endArrow=none;html=1;rounded=0;entryX=0.733;entryY=0.5;entryDx=0;entryDy=0;entryPerimeter=0;exitX=0.267;exitY=0.5;exitDx=0;exitDy=0;exitPerimeter=0;" edge="1" parent="1" source="PzdWSUnrl2-MDyvF0X8B-12" target="PzdWSUnrl2-MDyvF0X8B-12">
          <mxGeometry width="50" height="50" relative="1" as="geometry">
            <mxPoint x="230" y="330" as="sourcePoint" />
            <mxPoint x="280" y="280" as="targetPoint" />
            <Array as="points">
              <mxPoint x="255" y="310" />
            </Array>
          </mxGeometry>
        </mxCell>
        <mxCell id="PzdWSUnrl2-MDyvF0X8B-17" value="" style="endArrow=none;html=1;rounded=0;" edge="1" parent="1">
          <mxGeometry width="50" height="50" relative="1" as="geometry">
            <mxPoint x="139.83" y="300" as="sourcePoint" />
            <mxPoint x="49.83" y="300" as="targetPoint" />
            <Array as="points">
              <mxPoint x="109.83" y="300" />
            </Array>
          </mxGeometry>
        </mxCell>
        <mxCell id="PzdWSUnrl2-MDyvF0X8B-18" value="" style="endArrow=none;html=1;rounded=0;exitX=0.2;exitY=0.833;exitDx=0;exitDy=0;exitPerimeter=0;" edge="1" parent="1">
          <mxGeometry width="50" height="50" relative="1" as="geometry">
            <mxPoint x="49.83" y="329.96000000000004" as="sourcePoint" />
            <mxPoint x="49.83" y="300" as="targetPoint" />
          </mxGeometry>
        </mxCell>
        <mxCell id="PzdWSUnrl2-MDyvF0X8B-19" value="" style="endArrow=none;html=1;rounded=0;exitX=0.2;exitY=0.833;exitDx=0;exitDy=0;exitPerimeter=0;" edge="1" parent="1">
          <mxGeometry width="50" height="50" relative="1" as="geometry">
            <mxPoint x="139.83" y="330" as="sourcePoint" />
            <mxPoint x="139.83" y="300" as="targetPoint" />
          </mxGeometry>
        </mxCell>
        <mxCell id="PzdWSUnrl2-MDyvF0X8B-20" value="" style="endArrow=block;html=1;rounded=0;exitX=0.2;exitY=0.833;exitDx=0;exitDy=0;exitPerimeter=0;endFill=0;" edge="1" parent="1">
          <mxGeometry width="50" height="50" relative="1" as="geometry">
            <mxPoint x="94.83000000000001" y="300" as="sourcePoint" />
            <mxPoint x="95" y="280" as="targetPoint" />
          </mxGeometry>
        </mxCell>
        <mxCell id="PzdWSUnrl2-MDyvF0X8B-22" value="&amp;lt;&amp;lt;include&amp;gt;&amp;gt;" style="endArrow=none;dashed=1;html=1;rounded=0;entryX=0.786;entryY=0.5;entryDx=0;entryDy=0;entryPerimeter=0;exitX=0.214;exitY=0.5;exitDx=0;exitDy=0;exitPerimeter=0;endFill=0;startArrow=open;startFill=0;labelPosition=center;verticalLabelPosition=top;align=center;verticalAlign=bottom;" edge="1" parent="1" source="PzdWSUnrl2-MDyvF0X8B-13" target="PzdWSUnrl2-MDyvF0X8B-13">
          <mxGeometry width="50" height="50" relative="1" as="geometry">
            <mxPoint x="180" y="380" as="sourcePoint" />
            <mxPoint x="230" y="330" as="targetPoint" />
          </mxGeometry>
        </mxCell>
        <mxCell id="PzdWSUnrl2-MDyvF0X8B-23" value="&amp;lt;&amp;lt;extend&amp;gt;&amp;gt;" style="endArrow=open;dashed=1;html=1;rounded=0;entryX=0.786;entryY=0.5;entryDx=0;entryDy=0;entryPerimeter=0;exitX=0.214;exitY=0.5;exitDx=0;exitDy=0;exitPerimeter=0;endFill=0;labelPosition=center;verticalLabelPosition=top;align=center;verticalAlign=bottom;" edge="1" parent="1" source="PzdWSUnrl2-MDyvF0X8B-14" target="PzdWSUnrl2-MDyvF0X8B-14">
          <mxGeometry width="50" height="50" relative="1" as="geometry">
            <mxPoint x="400" y="350" as="sourcePoint" />
            <mxPoint x="450" y="300" as="targetPoint" />
          </mxGeometry>
        </mxCell>
        <mxCell id="PzdWSUnrl2-MDyvF0X8B-24" value="액터" style="text;html=1;strokeColor=none;fillColor=none;align=center;verticalAlign=middle;whiteSpace=wrap;rounded=0;" vertex="1" parent="1">
          <mxGeometry x="55" y="200" width="60" height="30" as="geometry" />
        </mxCell>
        <mxCell id="PzdWSUnrl2-MDyvF0X8B-25" value="유스케이스" style="text;html=1;strokeColor=none;fillColor=none;align=center;verticalAlign=middle;whiteSpace=wrap;rounded=0;" vertex="1" parent="1">
          <mxGeometry x="237.5" y="200" width="75" height="30" as="geometry" />
        </mxCell>
        <mxCell id="PzdWSUnrl2-MDyvF0X8B-26" value="시스템경계 (주제)" style="text;html=1;strokeColor=none;fillColor=none;align=center;verticalAlign=middle;whiteSpace=wrap;rounded=0;" vertex="1" parent="1">
          <mxGeometry x="460" y="200" width="110" height="30" as="geometry" />
        </mxCell>
        <mxCell id="PzdWSUnrl2-MDyvF0X8B-27" value="범화" style="text;html=1;strokeColor=none;fillColor=none;align=center;verticalAlign=middle;whiteSpace=wrap;rounded=0;" vertex="1" parent="1">
          <mxGeometry x="65" y="330" width="60" height="30" as="geometry" />
        </mxCell>
        <mxCell id="PzdWSUnrl2-MDyvF0X8B-28" value="관련" style="text;html=1;strokeColor=none;fillColor=none;align=center;verticalAlign=middle;whiteSpace=wrap;rounded=0;" vertex="1" parent="1">
          <mxGeometry x="225" y="330" width="60" height="30" as="geometry" />
        </mxCell>
        <mxCell id="PzdWSUnrl2-MDyvF0X8B-29" value="포함" style="text;html=1;strokeColor=none;fillColor=none;align=center;verticalAlign=middle;whiteSpace=wrap;rounded=0;" vertex="1" parent="1">
          <mxGeometry x="380" y="330" width="60" height="30" as="geometry" />
        </mxCell>
        <mxCell id="PzdWSUnrl2-MDyvF0X8B-30" value="확장" style="text;html=1;strokeColor=none;fillColor=none;align=center;verticalAlign=middle;whiteSpace=wrap;rounded=0;" vertex="1" parent="1">
          <mxGeometry x="530" y="330" width="60" height="30" as="geometry" />
        </mxCell>
      </root>
    </mxGraphModel>
  </diagram>
</mxfile>
